<?xml version="1.0" encoding="UTF-8"?><svg id="Layer_1" xmlns="http://www.w3.org/2000/svg" viewBox="0 0 5000 5000"><defs><style>.cls-1{fill:#676767;}.cls-2{fill:#ebebeb;}.cls-3{fill:#f0f0f0;}.cls-4{fill:#e6e6e6;}.cls-5{fill:#fff;}.cls-6{fill:#9c9c9c;}.cls-7{fill:#b5b5b5;}.cls-8{fill:#b9b9b9;}.cls-9{fill:#909090;}.cls-10{fill:#c1c1c1;}.cls-11{fill:#303030;}.cls-12{fill:#858585;}.cls-13{fill:#b1b1b1;}.cls-14{fill:#bcbcbc;}.cls-15{fill:#b0b0b0;}.cls-16{fill:#a4a4a4;}.cls-17{fill:#bdbdbd;}.cls-18{fill:#dedede;}.cls-19{fill:#d6d6d6;}.cls-20{fill:#252525;}.cls-21{fill:#242424;}.cls-22{fill:#404040;}.cls-23{fill:#101010;}.cls-24{fill:#454545;}.cls-25{fill:#707070;}.cls-26{fill:#464646;}.cls-27{fill:#868686;}.cls-28{fill:#565656;}.cls-29{fill:#838383;}.cls-30{fill:#606060;}.cls-31{fill:#4f4f4f;}.cls-32{fill:#787878;}</style></defs><path d="m.23.23C1662.99.23,3325.76.24,4988.52,0c9.37,0,11.48,2.11,11.48,11.48-.24,1659.01-.24,3318.03,0,4977.04,0,9.37-2.11,11.48-11.48,11.48-1659.01-.24-3318.03-.24-4977.04,0-9.37,0-11.48-2.11-11.48-11.48C.24,3325.76.23,1662.99.23.23Z"/><path class="cls-5" d="m2765.2,2114.69c92.33.11,184.66.23,276.99.35,12.48.02,24.95.09,37.43.14,2.94,4.13,1.43,8.84,1.45,13.25.16,28.97.13,57.94.02,86.91-.02,4.03,1.23,8.3-1.33,12.08l.08-.08c-4.24,2.65-8.95,1.32-13.42,1.32-99.99.16-199.97-.08-299.96.18-5.35,3.65-2.64,9.14-2.64,13.66-.18,111.74-.14,223.48-.14,335.21.54,8.31-1.16,16.71,1.01,24.97-6.51,10.43-.03,20.9.75,31.07,2.17,28.26,8.18,55.72,24.42,80.06,15.79,23.67,37.73,37.68,65.08,43.53,10.61,2.27,21.53,3.14,32.31,4.65,5.13-1.46,10.38-.41,15.56-.73,9.72,0,19.45,0,29.17,0,5.21.31,10.47-.71,15.63.71,39.81-2.29,77.93-11.6,114.29-27.89,15.12-6.77,15.63-6.47,18.13,9.14,4.79,29.96,9.41,59.97,15.58,89.66,1.46,7-.11,8.42-5.26,10.35-33.17,12.45-65.76,26.43-101.21,32.03-16.36,2.58-32.66,5.29-49.17,6.69-5.03-1.2-10.05-1.35-15.07.09-17.46.03-34.91.06-52.37.09-5.06-1.61-10.13-1.36-15.22-.14-54.64-5.15-107.3-15.27-151.35-52.09-35.29-29.5-52.76-68.53-63.35-111.54-6.87-27.89-9.07-56.58-12.12-85.09-.1-.96,1.12-2.06,1.72-3.09-1.86-4.32-.59-8.87-.96-13.3,0-6.17,0-12.34,0-18.52,0-118.52.03-237.03-.13-355.54,0-4.62,2.4-9.98-2.32-13.94-47.64-.35-95.28-.01-142.91-.2-4.49-.02-9.12,1.03-13.47-1.05l.23-.3c-3-8.42-1.19-17.13-1.3-25.68-.29-24.77-.17-49.55-.03-74.33.02-4-1.34-8.28,1.42-12,52.29-.14,104.59-.27,156.88-.4,3.11-4.09,1.52-8.83,1.53-13.22.12-60.95.05-121.91.14-182.86,0-4.47-1.2-9.13,1.19-13.41,17.34-3.43,34.62-7.22,52.03-10.2,25.8-4.42,51.71-8.27,77.57-12.36,3.01,4.12,1.48,8.85,1.48,13.25.11,68.43.05,136.86.15,205.28,0,4.42-1.46,9.13,1.44,13.29Z"/><path class="cls-5" d="m1797.27,3127.16c-120.67-.03-241.33-.06-362-.1-2.55-3.82-1.33-8.11-1.33-12.17-.06-431.6-.06-863.19,0-1294.79,0-4.05-1.22-8.35,1.33-12.17,84.05-.12,168.1-.3,252.15-.35,36.61-.03,73.23.18,109.84.29,3.18,8.8,1.49,17.92,1.36,26.83-.36,24.25,1.77,48.54-1.17,72.74l.2.33c-30.09,2.23-60.22.38-90.33.99-46.21,0-92.42,0-138.63,0q-14.89,0-14.9,14.56c0,154.44,0,308.89,0,463.33,0,208.56-.01,417.13.07,625.69,0,4.89-1.34,9.99,1.25,14.69,71.57.14,143.13.27,214.7.43,9.15.02,18.3.17,27.45.27,3.17,8.79,1.52,17.92,1.35,26.82-.46,24.2,2.02,48.47-1.35,72.61Z"/><path class="cls-5" d="m3472.08,3127.28c-120.7-.08-241.41-.17-362.11-.25-2.74-21.88-.87-43.86-1.1-65.78-.12-11.11-1.56-22.34,1.1-33.38,71.56-.14,143.13-.27,214.69-.42,9.15-.02,18.3-.17,27.45-.26,2.93-3.7,1.53-8.04,1.53-12.06.07-364.48.08-728.96-.05-1093.44,0-4.23,2.3-9.22-2.28-12.75-75.9-.38-151.8-.04-227.7-.19-4.53,0-9.13.65-13.61-.66-2.88-17.24-1.06-34.61-1.11-51.91-.04-16.05-1.68-32.18,1.08-48.18,63.26-.14,126.52-.35,189.78-.39,57.44-.04,114.88.09,172.33.14,2.83,3.73,1.47,8.06,1.47,12.08.07,431.79.07,863.59,0,1295.38,0,4.03,1.36,8.35-1.47,12.09Z"/><path class="cls-5" d="m2265.25,2102.39c38.38,3.62,76.14,10.72,113.4,20.46,9.63,2.52,23.75,3.28,27.23,9.58,3.58,6.48-3.09,18.82-5.69,28.48-6.8,25.23-13.77,50.41-20.79,75.58-1.73,6.2-3.24,9.79-12.18,6.43-31.04-11.65-63.45-18.76-96.34-22.74-18.37-2.22-37.05-1.98-55.59-2.84-5.2-2.27-10.67-.56-15.99-1.1-6.15,0-12.3,0-18.45,0-5.34.54-10.84-1.19-16.07,1.11-55.18,1.91-107.29,14.1-153.72,45.6-51.19,34.72-80.43,84.15-95.69,142.85-5.68,21.83-8.06,44.16-8.25,66.71-1.39,12.51-1.4,25.02,0,37.53.11,39.84,8.68,77.68,25.41,113.91,28.47,61.67,76.55,100.25,140.22,120.84,35.65,11.53,72.01,18.8,109.73,17.22,8.2-1.61,16.48-.33,24.72-.74,5.97.37,12-.81,17.91.76,1.56.08,3.11.15,4.67.23,6.6-2.65,13.78.68,20.38-1.97,48.07-1.3,94.8-10.34,140.21-25.71,8.71-2.95,8.65-1.46,9.93,6.31,5.1,30.94,11.37,61.69,17.13,92.53,1.35,7.21-.58,11.7-8.57,14.47-36.68,12.7-74.21,21.57-112.58,27.09-9.56,1.37-19.09,2.98-28.64,4.48-4.27-1.11-8.52-1.36-12.75.15-8.26.81-16.52,1.61-24.78,2.42-4.19-1.64-8.57-.48-12.85-.83-4.91.41-9.93-.91-14.76.86-19.12.04-38.24.09-57.37.13-5.08-1.65-10.18-1.4-15.29-.13-28.77-3.67-57.54-7.03-85.75-14.41-59.21-15.49-113.06-40.65-159.34-81.66-56.22-49.81-88.21-112.6-104.99-184.8-6.57-28.27-7.91-57-12.04-85.45-.25-1.71,1.32-3.68,2.05-5.53-1.47-12.62-1.49-25.23.01-37.85-2.56-12.43-.65-25.16.86-37.17,3.54-28.28,8.07-56.52,16.81-83.97,19.59-61.52,52.07-114.81,100.51-157.54,39.42-34.78,85.2-58.8,135.7-73.42,38.63-11.18,77.72-18.98,118.26-20.79,23.55-1.06,47.02-1.53,70.55-1.5,5.17,1.82,10.53.46,15.78.88,3.99.35,8.1-.85,11.98.95l12.23.63c4.02,2.24,8.81-.47,12.79,1.98Z"/><path class="cls-5" d="m3587.73,2830.16c30.66.06,61.33.12,91.99.18,3.07,15.21,1.23,30.59,1.21,45.87-.02,16.11,1.84,32.32-1.21,48.37-30.66.06-61.33.12-91.99.18-3.44-9.62-1.5-19.59-1.36-29.33.32-21.76-2.06-43.59,1.36-65.28Z"/><path class="cls-15" d="m1435.27,1807.94c-.06,5.41-.17,10.82-.17,16.24,0,428.89,0,857.77,0,1286.66,0,5.41.11,10.82.17,16.24-5.39-2.51-2.53-7.29-2.53-10.84-.15-432.48-.15-864.96,0-1297.44,0-3.55-2.85-8.34,2.53-10.84Z"/><path class="cls-11" d="m3472.08,3127.28c.11-3.33.31-6.65.31-9.98.01-433.2.01-866.4,0-1299.59,0-3.33-.2-6.65-.31-9.98,4.56,2.9,2.75,7.51,2.75,11.38.08,432.26.08,864.52,0,1296.78,0,3.87,1.81,8.49-2.75,11.38Z"/><path class="cls-23" d="m1555.12,3027.04c-5.37-2.55-2.38-7.3-2.38-10.82-.16-365.75-.12-731.5-.37-1097.25,0-9.2,1.96-11.8,11.48-11.66,47.89.68,95.79.53,143.68.66.84.4,1.13.82.89,1.29-.25.48-.5.72-.77.72-46.24.03-92.48.38-138.71-.16-10.79-.13-14.12,2.49-14.11,13.78.32,367.81.28,735.63.29,1103.44Z"/><path class="cls-9" d="m3352.15,1907.87c5.04,2.68,2.65,7.43,2.66,11.13.13,365.71.13,731.41,0,1097.12,0,3.67,2.47,8.45-2.68,11.06.1-4.16.29-8.32.29-12.48.01-364.04.01-728.08,0-1092.12,0-4.16-.27-8.31-.41-12.47-.62-.54-.8-1.06-.55-1.54.24-.47.48-.7.7-.7Z"/><path class="cls-2" d="m2629.69,2227.67c3.56,2.17,2.78,5.75,2.78,8.98-.04,121.2-.11,242.41-.18,363.61-.83.91-1.45.78-1.88-.37-.14-117.86-.27-235.71-.43-353.57,0-5.4-.26-10.81-.39-16.21-.62-.57-.81-1.12-.57-1.65.23-.52.46-.78.68-.78Z"/><path class="cls-1" d="m2762.83,2579.91c-.12-115.32-.24-230.64-.31-345.95,0-2.24-.91-5.18,2.62-6.01.76.44,1.04.92.86,1.45-.19.55-.4.83-.63.83-.13,100.81-.25,201.62-.41,302.42-.03,15.82-.3,31.64-.45,47.46-.56-.06-1.11-.13-1.67-.19Z"/><path class="cls-21" d="m2765.37,2230.22c-.2-.75-.27-1.5-.22-2.28,78.26-.14,156.51-.28,234.77-.42,26.64-.05,53.28-.12,79.93-.18-3.93,4.75-9.32,2.57-14,2.58-100.16.2-200.31.23-300.47.3Z"/><path class="cls-23" d="m3352.15,1907.87c.2.77.15,1.51-.16,2.24-76.82-.02-153.65,0-230.47-.16-4.68,0-10.08,2.17-13.94-2.7.76-.93,1.56-.96,2.4-.12,70.74.14,141.48.27,212.22.43,9.98.02,19.96.2,29.95.3Z"/><path class="cls-1" d="m2765.2,2114.69c-5.53-3.01-2.54-8.18-2.56-12.14-.35-73.23-.4-146.45-.52-219.68,5.39,3.57,2.69,9.04,2.71,13.52.27,72.77.29,145.54.37,218.3Z"/><path class="cls-2" d="m2632.53,1905.43c-.01,65.19.02,130.38-.14,195.57-.01,4.67,2.19,10.09-2.72,13.92.11-65.81.15-131.61.5-197.42.02-3.92-2.88-8.97,2.37-12.07Z"/><path class="cls-21" d="m2629.69,2227.67c-.04.81-.07,1.63-.11,2.44-48.07-.03-96.13,0-144.2-.16-4.35-.01-9.21,1.68-12.92-2.31,52.41.01,104.82.02,157.23.03Z"/><path class="cls-32" d="m2472.78,2115.33c-.03,37.33-.06,74.67-.09,112-3.32-.99-2.64-3.82-2.64-6.14-.05-33.28-.05-66.56,0-99.84,0-2.3-.7-5.17,2.73-6.02Z"/><path class="cls-21" d="m3079.77,2227.42c-.05-37.41-.09-74.83-.14-112.24,2.63,1.39,2.8,3.86,2.8,6.39,0,33.12,0,66.24,0,99.36,0,2.52-.13,5-2.66,6.49Z"/><path class="cls-3" d="m3109.98,3027.87c0,33.05,0,66.11,0,99.16-3.85-.58-2.46-3.66-2.47-5.73-.09-29.23-.09-58.47,0-87.7,0-2.07-1.38-5.15,2.47-5.73Z"/><path class="cls-3" d="m3109.97,1907.14l-1.19.35-1.22-.24c-.04-30.33-.17-60.66.01-90.98.02-2.7-2.57-6.78,2.39-8.29,0,33.05,0,66.11,0,99.16Z"/><path class="cls-32" d="m1797.46,1907.45c-.06-33.19-.13-66.38-.19-99.58,3.34.91,2.66,3.72,2.68,6.02.16,28.82.29,57.64.29,86.46,0,2.54,1.38,6.02-2.78,7.1Z"/><path class="cls-25" d="m1797.27,3127.16c0-33.15,0-66.29,0-99.44,3.37.9,2.74,3.73,2.75,6.06.05,29.11.05,58.22,0,87.32,0,2.32.62,5.16-2.75,6.06Z"/><path class="cls-22" d="m3587.73,2830.16c0,31.54,0,63.07,0,94.61-2.89-1.22-2.79-3.82-2.79-6.28-.02-27.35-.02-54.7,0-82.06,0-2.46-.1-5.06,2.79-6.28Z"/><path class="cls-15" d="m3679.72,2924.59c0-31.41,0-62.83,0-94.24,3.72.61,2.61,3.61,2.62,5.76.08,27.57.08,55.14,0,82.72,0,2.15,1.1,5.15-2.62,5.76Z"/><path class="cls-21" d="m1707.65,1909.97c-.05-.67-.09-1.33-.12-2,30.04-.06,60.09-.13,90.13-.19-3.37,3.57-7.77,2.21-11.74,2.22-26.09.09-52.17,0-78.26-.02Z"/><path class="cls-25" d="m1769.78,2472.33c0,12.62,0,25.23-.01,37.85-3.71-12.62-3.55-25.23.01-37.85Z"/><path class="cls-18" d="m1907.13,2510.03c-3.44-12.51-3.43-25.02,0-37.53,0,12.51,0,25.02,0,37.53Z"/><path class="cls-20" d="m2932.35,2762.09c-9.91-.02-19.82-.04-29.74-.06-.83-.23-1.17-.57-1.02-1.03.17-.52.37-.77.6-.77,10.2.03,20.39.07,30.59.1.59.56.72,1,.4,1.34-.27.28-.54.42-.82.42Z"/><path class="cls-21" d="m2207.46,2762.1c-8.32-.03-16.64-.06-24.96-.09,8.18-4.1,16.83-1.35,25.26-1.71.67.52.85.96.54,1.32-.27.32-.55.48-.84.48Z"/><path class="cls-29" d="m2762.83,2579.91c.56.07,1.11.13,1.67.19.06,7.53.13,15.05.19,22.58-4.2-7.3-1.86-15.13-1.87-22.77Z"/><path class="cls-20" d="m2180.12,2215.39c6.61,0,13.22.01,19.84.02.81.29,1.12.65.94,1.1-.2.48-.42.72-.66.72-6.83-.02-13.67-.05-20.5-.07-.6-.54-.75-.98-.43-1.33.27-.29.54-.44.82-.44Z"/><path class="cls-6" d="m2250.17,2760.28c-6.49,3.74-13.53,1.95-20.38,1.97,6.47-4.05,13.53-1.93,20.38-1.97Z"/><path class="cls-14" d="m2630.4,2599.89c.63.09,1.26.21,1.88.37-.07,5.83-.14,11.66-.21,17.49-.56-.13-1.13-.27-1.69-.4,0-5.82.02-11.64.02-17.46Z"/><path class="cls-24" d="m2207.46,2762.1c.09-.6.19-1.21.3-1.8,5.79.54,11.94-2.46,17.37,1.73-5.89.03-11.78.05-17.66.08Z"/><path class="cls-26" d="m2200.24,2217.23c-.11-.6-.2-1.21-.28-1.82,5.17.13,10.7-2.49,15.33,1.92-5.02-.03-10.04-.07-15.06-.1Z"/><path class="cls-31" d="m2180.12,2215.39c-.12.59-.24,1.18-.38,1.77-4.98.06-9.96.12-14.94.19,4.7-3.84,10.11-2.15,15.33-1.95Z"/><path class="cls-30" d="m2902.19,2760.24c.19.59.33,1.19.42,1.8-5.12-.01-10.24-.03-15.36-.04,4.51-4.55,9.97-1.07,14.94-1.76Z"/><path class="cls-28" d="m2932.35,2762.09c.12-.59.26-1.18.42-1.76,4.96.43,10.3-2.59,14.84,1.64-5.09.04-10.17.08-15.26.12Z"/><path class="cls-16" d="m2129.85,2882.02c5.13-3.91,10.22-2.73,15.29.13-5.1-.04-10.2-.09-15.29-.13Z"/><path class="cls-4" d="m2202.51,2882.03c4.7-3.68,10.11-1.63,15.24-1.87.69.55.88,1.01.55,1.39-.29.33-.58.49-.88.49-4.97,0-9.94,0-14.91-.01Z"/><path class="cls-7" d="m2857.33,2881.99c5.11-3.8,10.17-2.69,15.22.14-5.07-.05-10.14-.09-15.22-.14Z"/><path class="cls-19" d="m2924.91,2882.05c5.01-2.82,10.02-3.6,15.07-.09l-15.07.09Z"/><path class="cls-10" d="m2227.84,2099.57c-5.23.46-10.54,1.61-15.38-1.62,4.97-.02,9.95-.03,14.92-.05.15.56.31,1.12.46,1.67Z"/><path class="cls-17" d="m2265.25,2102.39c-4.4.21-8.9,1.05-12.79-1.98,4.4-.2,9.04-1.98,12.79,1.98Z"/><path class="cls-12" d="m2227.84,2099.57c-.16-.56-.31-1.11-.46-1.67,4.41-.29,9.02-1.89,12.84,1.88-4.13-.07-8.25-.14-12.38-.21Z"/><path class="cls-27" d="m2630.38,2617.34c.57.12,1.13.26,1.69.4.06,4.15.12,8.29.17,12.44-3.62-3.84-2.21-8.42-1.87-12.84Z"/><path class="cls-13" d="m2254.9,2879.59c4.23-2.25,8.46-3.91,12.75-.15-4.25.05-8.5.1-12.75.15Z"/><path class="cls-8" d="m2217.42,2882.04c.07-.63.18-1.26.33-1.88,4.12.63,8.75-2.12,12.38,1.85-4.23.01-8.47.02-12.7.03Z"/></svg>